<?xml version="1.0" encoding="UTF-8"?>
<svg xmlns="http://www.w3.org/2000/svg" viewBox="0 0 1920 1920">
  <defs>
    <style>
      .cls-1 {
        fill: none;
        stroke: #003398;
        stroke-width: 19px;
      }

      .cls-1, .cls-2 {
        stroke-miterlimit: 10;
      }

      .cls-2 {
        fill: #003398;
        stroke: #000;
      }

      .cls-3 {
        fill: #77b3f1;
      }

      .cls-3, .cls-4 {
        stroke-width: 0px;
      }

      .cls-4 {
        fill: #fff;
      }
    </style>
  </defs>
  <g id="Layer_3" data-name="Layer 3">
    <path class="cls-4" d="M1760,160v1600H160V160h1600M1770,150H150v1620h1620V150h0Z"/>
  </g>
  <g id="Layer_4" data-name="Layer 4">
    <g>
      <path class="cls-3" d="M516.22,679.56v136.79c0,45.95,21.18,67.18,53.14,67.18,34.27,0,54.68-21.23,54.68-67.18v-136.79h47.36v134.01c0,72.4-41.2,104.42-103.58,104.42s-98.96-30.28-98.96-104.07v-134.35h47.36Z"/>
      <path class="cls-3" d="M723.77,795.12c0-19.49-.39-35.85-1.54-50.47h41.59l2.31,25.41h1.16c8.09-13.23,28.49-29.24,59.68-29.24,32.73,0,66.62,19.14,66.62,72.75v100.59h-47.36v-95.72c0-24.37-10.01-42.81-35.81-42.81-18.87,0-31.96,12.18-36.96,25.06-1.54,3.83-1.93,9.05-1.93,13.92v99.55h-47.75v-119.04Z"/>
      <path class="cls-3" d="M1116.91,667.03v199.44c0,17.4.77,36.2,1.54,47.69h-42.36l-1.92-26.8h-.77c-11.17,18.8-33.88,30.63-61.22,30.63-44.67,0-80.09-34.46-80.09-86.67-.38-56.73,38.89-90.5,83.94-90.5,25.8,0,44.28,9.75,52.75,22.28h.77v-96.07h47.36ZM1069.55,815.31c0-3.48-.38-7.66-1.16-11.14-4.24-16.71-19.25-30.28-40.82-30.28-30.42,0-47.36,24.36-47.36,56.04s16.94,53.6,46.98,53.6c19.25,0,36.2-11.83,40.82-30.28,1.16-3.83,1.54-8.01,1.54-12.53v-25.41Z"/>
      <path class="cls-3" d="M1201.24,841.41c1.16,30.63,27.72,43.86,57.76,43.86,21.95,0,37.74-2.79,51.98-7.66l6.93,29.59c-16.17,5.92-38.5,10.44-65.46,10.44-60.84,0-96.65-33.76-96.65-85.62,0-46.99,31.58-91.19,91.64-91.19s80.86,45.25,80.86,82.49c0,8-.77,14.27-1.54,18.1h-125.53ZM1283.64,811.48c.38-15.66-7.32-41.42-38.89-41.42-29.26,0-41.59,24.02-43.51,41.42h82.4Z"/>
      <path class="cls-3" d="M1366.43,799.3c0-22.97-.39-39.33-1.54-54.65h41.2l1.54,32.37h1.54c9.24-24.02,31.19-36.2,51.21-36.2,4.62,0,7.32.35,11.17,1.04v40.38c-3.85-.7-8.09-1.39-13.86-1.39-22.72,0-38.12,13.23-42.36,32.37-.77,3.83-1.54,8.35-1.54,13.23v87.71h-47.36v-114.86Z"/>
      <path class="cls-2" d="M406.48,1163.52c15.4,8.01,38.51,14.97,62.76,14.97,30.42,0,47.36-12.88,47.36-32.02,0-17.75-13.09-28.19-46.21-38.98-42.74-13.92-70.08-34.46-70.08-68.22,0-38.29,35.43-67.53,91.64-67.53,28.11,0,48.9,5.57,62.38,11.83l-11.55,34.46c-9.24-4.52-27.34-11.14-51.6-11.14-30.03,0-43.13,14.62-43.13,28.19,0,18.1,15.02,26.45,49.67,38.64,45.05,15.31,67,35.85,67,69.61,0,37.59-31.57,70.31-98.57,70.31-27.34,0-55.83-6.96-70.08-14.62l10.4-35.5Z"/>
      <path class="cls-2" d="M641.37,1137.41c1.16,30.63,27.72,43.86,57.76,43.86,21.95,0,37.74-2.78,51.98-7.66l6.93,29.59c-16.17,5.92-38.5,10.44-65.46,10.44-60.84,0-96.65-33.76-96.65-85.62,0-46.99,31.58-91.19,91.64-91.19s80.86,45.25,80.86,82.49c0,8.01-.77,14.27-1.54,18.1h-125.53ZM723.77,1107.48c.38-15.66-7.32-41.42-38.89-41.42-29.26,0-41.59,24.02-43.51,41.42h82.4Z"/>
      <path class="cls-2" d="M806.56,1095.3c0-22.97-.39-39.33-1.54-54.65h41.2l1.54,32.37h1.54c9.24-24.02,31.19-36.2,51.21-36.2,4.62,0,7.32.35,11.17,1.04v40.38c-3.85-.7-8.09-1.39-13.86-1.39-22.72,0-38.12,13.23-42.36,32.37-.77,3.83-1.54,8.35-1.54,13.23v87.71h-47.36v-114.86Z"/>
      <path class="cls-2" d="M982.13,1040.65l30.42,85.97c5.39,14.97,9.24,28.54,12.71,42.46h1.16c3.47-13.92,7.7-27.15,12.71-42.46l29.65-85.97h50.06l-71.62,169.51h-46.59l-69.7-169.51h51.21Z"/>
      <path class="cls-2" d="M1176.21,1137.41c1.16,30.63,27.72,43.86,57.76,43.86,21.95,0,37.74-2.78,51.98-7.66l6.93,29.59c-16.17,5.92-38.5,10.44-65.46,10.44-60.84,0-96.65-33.76-96.65-85.62,0-46.99,31.58-91.19,91.64-91.19s80.86,45.25,80.86,82.49c0,8.01-.77,14.27-1.54,18.1h-125.53ZM1258.61,1107.48c.38-15.66-7.32-41.42-38.89-41.42-29.26,0-41.59,24.02-43.51,41.42h82.4Z"/>
      <path class="cls-2" d="M1514.29,963.03v199.44c0,17.4.77,36.2,1.54,47.69h-42.36l-1.92-26.8h-.77c-11.17,18.79-33.88,30.63-61.22,30.63-44.67,0-80.09-34.46-80.09-86.67-.38-56.74,38.89-90.5,83.94-90.5,25.8,0,44.28,9.75,52.75,22.28h.77v-96.07h47.36ZM1466.92,1111.31c0-3.48-.38-7.66-1.16-11.14-4.24-16.71-19.25-30.28-40.82-30.28-30.42,0-47.36,24.37-47.36,56.04s16.94,53.6,46.98,53.6c19.25,0,36.2-11.83,40.82-30.28,1.16-3.83,1.54-8.01,1.54-12.53v-25.41Z"/>
    </g>
  </g>
  <g id="Layer_6" data-name="Layer 6">
    <rect class="cls-1" x="159" y="159" width="1602" height="1602"/>
  </g>
</svg>